<?xml version="1.0" standalone="no"?> <!DOCTYPE svg PUBLIC "-//W3C//DTD SVG 1.0//EN" "http://www.w3.org/TR/2001/REC-SVG-20010904/DTD/svg10.dtd" > <svg xmlns="http://www.w3.org/2000/svg" width="100%" height="100%">
<defs >
<font id="dejavusans-extralight" horiz-adv-x="1037" ><font-face
    font-family="DejaVuSans-ExtraLight"
    units-per-em="2048"
    panose-1="2 11 2 3 3 8 4 2 2 4"
    ascent="1901"
    descent="-483"
    alphabetic="0" />
<missing-glyph horiz-adv-x="1229" d="M102 -362V1444H1126V-362H102ZM197 -287H1032V1368H197V-287Z" />
<glyph unicode=" " glyph-name="space" horiz-adv-x="651" />
<glyph unicode="!" glyph-name="exclam" horiz-adv-x="821" d="M362 128H459V0H362V128ZM362 1493H459V838L439 481H383L362 838V1493Z" />
<glyph unicode="&quot;" glyph-name="quotedbl" horiz-adv-x="942" d="M328 1493V938H232V1493H328ZM706 1493V938H610V1493H706Z" />
<glyph unicode="#" glyph-name="numbersign" horiz-adv-x="1716" d="M1087 939H735L631 529H985L1087 939ZM866 1470L752 1017H1106L1220 1470H1321L1206 1017H1559V939H1187L1085 529H1444V452H1066L954 0H853L966 452H612L499 0H400L512 452H158V529H532L634
939H272V1017H654L766 1470H866Z" />
<glyph unicode="$" glyph-name="dollar" horiz-adv-x="1303" d="M683 -301H591V0Q521 0 394 44Q268 87 170 129V216Q275 171 394 130Q531 82 592 83V652Q383 686 287 765Q192 845 192 983Q192 1134 295 1221Q399 1308 592 1321V1556H683V1324Q760 1324 880 1300Q964
1285 1042 1259V1174Q956 1205 874 1222Q775 1243 683 1243V711Q924 678 1031 593Q1139 508 1139 360Q1139 201 1024 108Q910 16 683 0V-301ZM592 733V1239Q442 1223 364 1158Q285 1092 285 984Q285 878 358 818Q431 759 592 733ZM683 633V83Q868 105 957 175Q1045
245 1045 359Q1045 468 961 537Q880 603 683 633Z" />
<glyph unicode="%" glyph-name="percent" horiz-adv-x="1946" d="M1490 705Q1391 705 1335 618Q1279 532 1279 377Q1279 225 1335 138T1490 51Q1587 51 1643 138T1699 377Q1699 530 1643 618Q1587 705 1490 705ZM1488 784Q1628 784 1710 674Q1793 564 1793 377T1710
80Q1627 -29 1488 -29Q1346 -29 1264 80Q1182 190 1182 377Q1182 565 1265 674Q1347 784 1488 784ZM459 1441Q360 1441 304 1354Q248 1268 248 1113Q248 961 304 874T459 787Q555 787 612 874Q668 961 668 1113Q668 1266 612 1354Q555 1441 459 1441ZM1385 1520H1489L557
-29H453L1385 1520ZM457 1520Q597 1520 679 1410T761 1113T679 816Q596 707 457 707Q315 707 233 816Q151 926 151 1113Q151 1301 234 1410Q316 1520 457 1520Z" />
<glyph unicode="&amp;" glyph-name="ampersand" horiz-adv-x="1597" d="M517 856Q409 763 334 636Q278 542 278 414Q278 238 374 148Q481 48 684 53Q797 53 878 105Q1017 188 1080 275L517 856ZM588 912L1139 348Q1174 390 1258 534Q1318 637 1323 801H1424Q1408
649 1374 556Q1326 420 1207 280L1470 0H1343L1145 208Q1030 85 932 36Q802 -29 676 -29Q408 -29 291 111Q176 248 176 407Q176 564 252 692Q305 781 452 923Q415 964 377 1032Q341 1095 341 1161Q341 1340 433 1428Q529 1519 705 1520Q787 1520 866 1488Q1016
1426 1039 1408V1309Q944 1367 862 1402Q777 1438 714 1438Q613 1438 542 1397Q443 1342 443 1163Q443 1112 472 1060Q515 986 588 912Z" />
<glyph unicode="&apos;" glyph-name="quotesingle" horiz-adv-x="563" d="M327 1493V938H231V1493H327Z" />
<glyph unicode="(" glyph-name="parenleft" horiz-adv-x="799" d="M588 1556Q454 1326 389 1099Q324 874 324 643T390 186Q455 -41 588 -270H499Q361 -35 293 192Q224 419 224 643Q224 866 292 1092T499 1556H588Z" />
<glyph unicode=")" glyph-name="parenright" horiz-adv-x="799" d="M224 1556H313Q452 1320 520 1092Q588 866 588 643Q588 419 519 192Q451 -35 313 -270H224Q357 -41 423 186Q488 412 488 643T423 1099Q358 1326 224 1556Z" />
<glyph unicode="*" glyph-name="asterisk" horiz-adv-x="1024" d="M942 1278L556 1056L944 833L921 791L533 1016V586H485V1014L99 793L75 832L464 1056L77 1278L101 1318L485 1096V1520H533V1096L919 1318L942 1278Z" />
<glyph unicode="+" glyph-name="plus" horiz-adv-x="1716" d="M908 1284V684H1499V602H908V0H807V602H217V684H807V1284H908Z" />
<glyph unicode="," glyph-name="comma" horiz-adv-x="651" d="M274 126H375V82L296 -238H234L274 82V126Z" />
<glyph unicode="-" glyph-name="hyphen" horiz-adv-x="739" d="M100 602H639V520H100V602Z" />
<glyph unicode="." glyph-name="period" horiz-adv-x="651" d="M274 126H376V0H274V126Z" />
<glyph unicode="/" glyph-name="slash" horiz-adv-x="690" d="M552 1493H658L138 -190H32L552 1493Z" />
<glyph unicode="0" glyph-name="zero" horiz-adv-x="1303" d="M645 1438Q462 1438 373 1260Q284 1081 284 745T373 230Q462 52 645 52Q834 52 923 230Q1012 409 1012 745T923 1260Q834 1438 645 1438ZM645 1520Q861 1520 987 1344Q1113 1167 1113 745T987 146Q861
-30 645 -30Q435 -30 309 146Q183 323 183 745T309 1344Q435 1520 645 1520Z" />
<glyph unicode="1" glyph-name="one" horiz-adv-x="1303" d="M304 82H634V1401L225 1237V1329L632 1493H734V82H1064V0H304V82Z" />
<glyph unicode="2" glyph-name="two" horiz-adv-x="1303" d="M246 81H1098V0H142V105L514 492Q652 632 764 751Q868 862 903 923T938 1084Q938 1257 832 1362Q755 1438 584 1438Q484 1438 354 1380Q297 1354 160 1265V1371Q218 1412 330 1462Q457 1519 582 1520Q775
1520 905 1421Q1032 1322 1032 1094Q1032 1002 998 920Q958 824 872 725Q847 696 713 558L246 81Z" />
<glyph unicode="3" glyph-name="three" horiz-adv-x="1303" d="M831 805Q951 776 1020 676Q1088 578 1088 434Q1088 213 961 92T555 -29Q461 -29 362 0Q262 30 156 92V201Q240 128 340 90Q440 53 544 53Q760 53 874 151Q987 248 987 434Q987 586 882 671Q776 757
588 757H414V841H596Q769 841 860 910Q952 980 952 1112Q952 1268 858 1352Q763 1436 587 1436Q505 1436 410 1407T201 1317V1421Q316 1470 416 1493Q517 1518 606 1520Q835 1520 944 1416Q1054 1311 1054 1133Q1054 1014 996 924Q940 837 831 805Z" />
<glyph unicode="4" glyph-name="four" horiz-adv-x="1303" d="M824 1438L204 476H824V1438ZM746 1493H926V476H1139V396H926V0H824V396H100V500L746 1493Z" />
<glyph unicode="5" glyph-name="five" horiz-adv-x="1303" d="M261 1493H970V1412H362V911Q406 927 450 936Q494 944 579 944Q808 944 942 818Q1075 693 1075 479Q1075 238 938 104Q801 -29 551 -29Q468 -29 381 -15Q295 -1 202 27V129Q280 92 364 73Q447 55 540
55Q740 55 858 169T976 479Q976 656 861 759Q745 863 547 863Q506 863 426 841Q345 820 261 775V1493Z" />
<glyph unicode="6" glyph-name="six" horiz-adv-x="1303" d="M835 866T676 866T424 757T331 459T424 161T676 52T928 161T1021 459T928 757ZM1049 1460V1354Q979 1396 909 1418Q838 1440 769 1440Q471 1440 352 1147Q298 1014 302 696Q353 806 431 868Q532 949
688 949Q876 949 1001 816Q1125 684 1125 479Q1125 249 1003 110T685 -29Q448 -29 323 170Q199 368 199 745Q199 1147 352 1334Q504 1520 762 1520Q831 1520 902 1505Q972 1490 1049 1460Z" />
<glyph unicode="7" glyph-name="seven" horiz-adv-x="1303" d="M168 1493H1076V1407L534 0H428L971 1411H168V1493Z" />
<glyph unicode="8" glyph-name="eight" horiz-adv-x="1303" d="M651 744Q484 744 388 652Q293 559 293 397T388 143Q484 50 651 50T914 143Q1011 236 1011 397Q1011 559 915 652Q819 744 651 744ZM449 795Q352 831 290 916Q225 1005 225 1133Q225 1312 339 1416T651
1520Q850 1520 963 1416Q1077 1312 1077 1133Q1077 1000 1012 916Q945 829 854 795Q966 758 1036 662Q1109 563 1109 420Q1109 203 991 87Q872 -29 651 -29T311 87Q193 203 193 420Q193 563 266 662Q347 761 449 795ZM327 1276T327 1131T412 905T651 824Q803 824
890 905Q976 986 976 1131T890 1357Q803 1438 651 1438Q497 1438 412 1357Z" />
<glyph unicode="9" glyph-name="nine" horiz-adv-x="1303" d="M275 31V137Q345 95 415 73Q486 51 555 51Q853 51 972 344Q1026 477 1022 795Q971 685 893 623Q792 542 636 542Q448 542 323 675Q199 807 199 1012Q199 1242 321 1381Q444 1520 639 1520Q876 1520
1001 1322Q1125 1123 1125 746Q1125 344 973 158Q820 -29 562 -29Q493 -29 422 -14Q352 1 275 31ZM489 625T648 625T900 734T993 1032T900 1330T648 1439T396 1330T303 1032T396 734Z" />
<glyph unicode=":" glyph-name="colon" horiz-adv-x="690" d="M294 128H396V0H294V128ZM294 984H396V857H294V984Z" />
<glyph unicode=";" glyph-name="semicolon" horiz-adv-x="690" d="M295 984H396V857H295V984ZM294 129H395V82L317 -238H255L294 82V129Z" />
<glyph unicode="&lt;" glyph-name="less" horiz-adv-x="1716" d="M1499 1052L345 640L1499 233V132L217 597V681L1499 1146V1052Z" />
<glyph unicode="=" glyph-name="equal" horiz-adv-x="1716" d="M217 844H1499V762H217V844ZM217 522H1499V440H217V522Z" />
<glyph unicode="&gt;" glyph-name="greater" horiz-adv-x="1716" d="M217 1052V1146L1499 681V597L217 132V233L1371 640L217 1052Z" />
<glyph unicode="?" glyph-name="question" horiz-adv-x="1087" d="M441 126H543V0H441V126ZM543 401H442V555Q442 643 476 721Q501 781 594 872L684 961Q744 1021 766 1061Q792 1108 792 1157Q792 1283 726 1361T547 1439Q422 1439 357 1410Q252 1364 176 1277L155
1386Q255 1470 333 1493Q423 1520 537 1520Q676 1520 788 1423Q899 1326 899 1167Q899 1091 863 1022Q829 958 737 868L649 782Q605 739 582 708Q563 682 555 657Q549 636 546 606Q546 576 543 524V401Z" />
<glyph unicode="@" glyph-name="at" horiz-adv-x="2048" d="M772 537Q772 363 847 264T1053 165Q1182 165 1257 265Q1331 364 1331 537Q1331 707 1255 807Q1179 908 1051 908T847 808Q772 708 772 537ZM1332 238Q1277 161 1205 124Q1134 88 1039 88Q880 88 781
212Q681 337 681 537T781 862T1039 987Q1134 987 1206 950Q1278 912 1332 836V967H1424V191Q1613 215 1696 330Q1782 448 1782 653Q1782 772 1745 877Q1712 973 1636 1071Q1486 1260 1329 1316T1055 1372Q942 1372 838 1336Q739 1301 647 1228Q503 1115 421 930Q340
746 340 530Q340 371 393 219Q445 71 546 -48Q642 -162 769 -221Q895 -280 1039 -280Q1167 -280 1292 -233Q1416 -186 1520 -97L1557 -177Q1444 -276 1310 -328Q1177 -380 1039 -380Q872 -380 724 -314Q575 -247 459 -121Q343 6 283 173Q222 339 222 531Q222 715
284 883Q352 1068 459 1176Q611 1329 729 1381Q882 1449 1053 1449Q1245 1449 1402 1387Q1556 1325 1725 1115Q1799 1023 1840 906Q1879 793 1879 673Q1879 391 1738 246Q1595 99 1332 111V238Z" />
<glyph unicode="A" glyph-name="A" horiz-adv-x="1401" d="M695 1392L375 552H1010L695 1392ZM631 1493H762L1333 0H1219L1041 469H344L167 0H61L631 1493Z" />
<glyph unicode="B" glyph-name="B" horiz-adv-x="1341" d="M352 744V81H727Q917 81 1009 163Q1101 244 1101 413Q1101 583 1009 663Q917 744 727 744H352ZM352 1411V826H702Q874 826 958 898T1042 1120Q1042 1267 958 1338Q874 1411 702 1411H352ZM252 1493H717Q922
1493 1033 1397T1144 1124Q1144 978 1087 906Q1024 826 935 797Q1064 763 1129 672Q1202 570 1202 418Q1202 218 1081 109T737 0H252V1493Z" />
<glyph unicode="C" glyph-name="C" horiz-adv-x="1430" d="M1319 1369V1254Q1217 1347 1102 1392Q986 1438 856 1438Q574 1438 425 1260Q275 1082 275 745T425 229Q574 50 856 50Q986 50 1102 96Q1217 143 1319 236V115Q1213 43 1094 7Q976 -29 844 -29Q530 -29
350 178Q170 386 170 745Q170 1105 350 1312Q530 1520 844 1520Q978 1520 1096 1482Q1215 1445 1319 1369Z" />
<glyph unicode="D" glyph-name="D" horiz-adv-x="1577" d="M351 1408V81H647Q985 81 1142 241Q1300 401 1300 746Q1300 1089 1142 1249Q985 1408 647 1408H351ZM249 1493H616Q1024 1493 1215 1312Q1406 1132 1406 748Q1406 362 1214 181T616 0H249V1493Z" />
<glyph unicode="E" glyph-name="E" horiz-adv-x="1294" d="M249 1493H1093V1410H351V837H1062V756H351V81H1111V0H249V1493Z" />
<glyph unicode="F" glyph-name="F" horiz-adv-x="1178" d="M250 1493H1007V1410H351V837H943V756H351V0H250V1493Z" />
<glyph unicode="G" glyph-name="G" horiz-adv-x="1587" d="M1270 127V650H889V732H1369V79Q1262 26 1134 0Q1006 -27 860 -29Q536 -29 354 176Q171 380 171 745Q171 1111 354 1316Q536 1520 860 1520Q994 1520 1113 1493Q1233 1464 1333 1408V1311Q1232 1367 1117
1396Q1003 1424 877 1424Q576 1424 425 1253Q274 1083 274 745Q274 402 425 229Q576 55 877 55Q1000 55 1097 72Q1193 90 1270 127Z" />
<glyph unicode="H" glyph-name="H" horiz-adv-x="1540" d="M249 1493H350V837H1185V1493H1286V0H1185V756H350V0H249V1493Z" />
<glyph unicode="I" glyph-name="I" horiz-adv-x="604" d="M248 1493H352V0H248V1493Z" />
<glyph unicode="J" glyph-name="J" horiz-adv-x="604" d="M250 1493H350V104Q350 -142 284 -253T72 -364H11V-281H60Q164 -281 207 -197T250 104V1493Z" />
<glyph unicode="K" glyph-name="K" horiz-adv-x="1343" d="M354 1493H453V850L1137 1493H1270L528 794L1319 0H1188L453 737V0H354V1493Z" />
<glyph unicode="L" glyph-name="L" horiz-adv-x="1141" d="M250 1493H350V82H1077V0H250V1493Z" />
<glyph unicode="M" glyph-name="M" horiz-adv-x="1767" d="M329 1493H468L883 386L1300 1493H1438V0H1336V1311L952 287H814L431 1311V0H329V1493Z" />
<glyph unicode="N" glyph-name="N" horiz-adv-x="1532" d="M248 1493H396L1120 128V1493H1220V0H1078L350 1374V0H248V1493Z" />
<glyph unicode="O" glyph-name="O" horiz-adv-x="1612" d="M1052 1442T807 1442T417 1255Q273 1068 273 745Q273 424 417 237Q562 50 807 50T1196 237Q1339 424 1339 745Q1339 1068 1196 1255Q1052 1442 807 1442ZM807 1520Q1097 1520 1271 1310Q1445 1099 1445
745Q1445 392 1271 182Q1097 -29 807 -29Q516 -29 341 181Q167 391 167 745T341 1310Q516 1520 807 1520Z" />
<glyph unicode="P" glyph-name="P" horiz-adv-x="1235" d="M350 1410V724H657Q824 724 915 813Q1007 902 1007 1068Q1007 1231 915 1321Q824 1410 657 1410H350ZM250 1493H657Q880 1493 995 1385Q1109 1277 1109 1068Q1109 858 995 750Q880 642 657 642H350V0H250V1493Z" />
<glyph unicode="Q" glyph-name="Q" horiz-adv-x="1612" d="M1052 1439T807 1439T417 1252Q273 1066 273 744Q273 423 417 237Q562 50 807 50T1196 237Q1339 423 1339 744Q1339 1066 1196 1252Q1052 1439 807 1439ZM1043 11L1297 -264H1171L944 -18Q902 -26 875
-28Q841 -28 807 -29Q516 -29 341 182Q167 392 167 745Q167 1099 341 1310Q516 1520 807 1520Q1097 1520 1271 1310Q1445 1099 1445 745Q1445 491 1349 300Q1244 92 1043 11Z" />
<glyph unicode="R" glyph-name="R" horiz-adv-x="1423" d="M867 700Q929 678 987 606Q1028 554 1104 408L1313 0H1206L993 410Q910 571 834 623Q756 675 623 675H352V0H252V1493H657Q886 1493 999 1386T1112 1063Q1112 924 1053 829Q997 736 867 700ZM352 1411V758H682Q842
758 924 841T1006 1086Q1006 1247 924 1329T682 1411H352Z" />
<glyph unicode="S" glyph-name="S" horiz-adv-x="1300" d="M1084 1418V1324Q986 1373 867 1411Q789 1436 670 1438Q494 1441 384 1360Q284 1286 284 1106Q284 995 360 930Q441 861 604 819L723 788Q883 746 970 688Q1133 577 1133 409Q1133 166 990 72Q834 -29
670 -29Q499 -29 364 18Q279 52 186 112V210Q326 127 382 104Q507 53 614 53Q797 53 918 134Q1032 210 1032 401Q1032 513 962 577Q861 670 700 709L580 738Q436 773 335 836Q182 932 182 1098Q182 1305 307 1416Q423 1519 659 1520Q798 1520 872 1496Q1062 1434
1084 1418Z" />
<glyph unicode="T" glyph-name="T" horiz-adv-x="1251" d="M45 1493H1206V1411H676V0H575V1411H45V1493Z" />
<glyph unicode="U" glyph-name="U" horiz-adv-x="1499" d="M229 1493H329V586Q329 302 429 177Q528 53 750 53Q971 53 1070 177Q1170 302 1170 586V1493H1270V561Q1270 269 1138 120Q1007 -29 750 -29Q492 -29 361 120Q229 269 229 561V1493Z" />
<glyph unicode="V" glyph-name="V" horiz-adv-x="1401" d="M632 0L62 1493H176L700 100L1228 1493H1333L764 0H632Z" />
<glyph unicode="W" glyph-name="W" horiz-adv-x="2025" d="M142 1493H245L586 118L926 1493H1052L1390 126L1730 1493H1833L1462 0H1319L989 1330L660 0H512L142 1493Z" />
<glyph unicode="X" glyph-name="X" horiz-adv-x="1403" d="M180 1493H294L712 866L1132 1493H1248L769 781L1288 0H1173L705 702L235 0H120L648 789L180 1493Z" />
<glyph unicode="Y" glyph-name="Y" horiz-adv-x="1251" d="M46 1493H162L627 805L1089 1493H1203L675 711V0H574V711L46 1493Z" />
<glyph unicode="Z" glyph-name="Z" horiz-adv-x="1403" d="M115 1493H1288V1412L212 82H1311V0H92V81L1166 1410H115V1493Z" />
<glyph unicode="[" glyph-name="bracketleft" horiz-adv-x="799" d="M232 1556H573V1452H332V-186H573V-270H232V1556Z" />
<glyph unicode="\" glyph-name="backslash" horiz-adv-x="690" d="M138 1493L658 -190H552L32 1493H138Z" />
<glyph unicode="]" glyph-name="bracketright" horiz-adv-x="799" d="M573 1556V-270H232V-186H473V1452H232V1556H573Z" />
<glyph unicode="^" glyph-name="asciicircum" horiz-adv-x="1716" d="M917 1493L1460 936H1327L858 1367L391 936H257L800 1493H917Z" />
<glyph unicode="_" glyph-name="underscore" horiz-adv-x="1024" d="M1044 -405V-483H-20V-405H1044Z" />
<glyph unicode="`" glyph-name="grave" horiz-adv-x="1024" d="M330 1638L612 1264H530L204 1638H330Z" />
<glyph unicode="a" glyph-name="a" horiz-adv-x="1255" d="M680 632Q458 632 360 553T262 322Q262 174 343 112T535 50Q745 50 837 228Q930 406 930 563V632H680ZM1023 639V0H932V304Q855 81 728 20Q627 -29 527 -29Q360 -29 264 60Q168 150 168 324T293 602Q418
707 702 707H930V725Q930 874 845 970Q761 1066 567 1066Q471 1066 371 1030Q307 1007 205 937V1036Q294 1091 371 1114Q483 1147 586 1147Q784 1147 912 1027Q1023 924 1023 639Z" />
<glyph unicode="b" glyph-name="b" horiz-adv-x="1300" d="M1040 286T1040 559T924 949Q809 1066 681 1066Q556 1066 440 949Q325 832 325 559T440 169Q556 52 681 52Q809 52 924 169Q1040 286 1040 559ZM324 864Q387 1010 461 1064Q574 1147 674 1147Q873 1147
1005 985T1137 559T1005 133T674 -29Q574 -29 461 54Q387 108 324 254V0H234V1556H324V864Z" />
<glyph unicode="c" glyph-name="c" horiz-adv-x="1126" d="M999 1066V968Q916 1019 862 1037Q769 1066 684 1066Q442 1066 337 942T232 559Q232 298 337 174T684 50Q764 50 842 72Q921 93 999 136V43Q922 7 840 -11Q757 -29 676 -29Q430 -29 285 104Q140 238 140
559T285 1014Q430 1147 676 1147Q756 1147 846 1124Q936 1102 999 1066Z" />
<glyph unicode="d" glyph-name="d" horiz-adv-x="1300" d="M1047 864V1556H1137V0H1047V254Q984 108 910 54Q797 -29 697 -29Q498 -29 366 133T234 559T366 985T697 1147Q797 1147 910 1064Q984 1010 1047 864ZM331 832T331 559T447 169Q562 52 690 52Q815 52
931 169Q1046 286 1046 559T931 949Q815 1066 690 1066Q562 1066 447 949Q331 832 331 559Z" />
<glyph unicode="e" glyph-name="e" horiz-adv-x="1260" d="M1105 606V548H255Q255 278 360 170Q476 50 705 50Q765 50 864 76Q964 102 1062 154V57Q963 15 859 -7T694 -29Q435 -29 304 111Q162 260 162 548Q162 847 292 994Q425 1147 662 1147Q882 1147 994 1002Q1105
850 1105 606ZM1012 626Q1012 862 906 970Q817 1066 664 1066Q497 1066 384 966Q280 873 259 626H1012Z" />
<glyph unicode="f" glyph-name="f" horiz-adv-x="721" d="M714 1556V1478H584Q482 1478 428 1425Q362 1360 362 1219V1120H664V1042H362V0H269V1042H93V1120H269V1198Q269 1385 354 1470Q438 1556 586 1556H714Z" />
<glyph unicode="g" glyph-name="g" horiz-adv-x="1229" d="M976 573Q976 806 882 934T616 1063Q447 1063 353 935T258 573Q258 341 352 213T616 84Q787 84 881 212T976 573ZM1068 139Q1068 -210 935 -318T598 -426Q501 -426 415 -412Q329 -397 248 -367V-262Q329
-306 408 -327T569 -348Q736 -348 856 -277T976 106V281Q935 166 863 100Q753 -1 616 0Q403 0 284 150T165 574Q165 846 284 996T616 1147Q752 1147 850 1061Q926 994 976 882V1120H1068V139Z" />
<glyph unicode="h" glyph-name="h" horiz-adv-x="1298" d="M1078 676V0H986V670Q986 886 913 976T692 1066Q522 1066 423 966T324 633V0H232V1556H324V913Q356 999 438 1066Q536 1147 714 1147Q880 1147 979 1028Q1078 908 1078 676Z" />
<glyph unicode="i" glyph-name="i" horiz-adv-x="569" d="M230 1120H322V0H230V1120ZM230 1556H322V1430H230V1556Z" />
<glyph unicode="j" glyph-name="j" horiz-adv-x="569" d="M239 1120H331V-20Q331 -248 262 -337Q192 -426 33 -426H-37V-348H12Q124 -348 182 -298Q239 -248 239 -20V1120ZM239 1556H331V1430H239V1556Z" />
<glyph unicode="k" glyph-name="k" horiz-adv-x="1186" d="M325 1556H418V611L975 1120H1101L522 591L1120 0H1001L418 574V0H325V1556Z" />
<glyph unicode="l" glyph-name="l" horiz-adv-x="569" d="M232 1556H324V0H232V1556Z" />
<glyph unicode="m" glyph-name="m" horiz-adv-x="1995" d="M1038 876Q1090 1011 1202 1080Q1308 1147 1454 1147T1688 1044Q1777 942 1777 676V0H1686V670Q1686 902 1622 984T1452 1066Q1298 1066 1180 971Q1051 868 1051 633V0H959V670Q959 894 897 980T725 1066Q571
1066 453 970Q324 867 324 633V0H232V1120H324V910Q373 1020 476 1084Q580 1147 731 1147Q829 1147 920 1081Q990 1030 1038 876Z" />
<glyph unicode="n" glyph-name="n" horiz-adv-x="1298" d="M1078 676V0H986V670Q986 888 916 977T710 1066Q551 1066 438 970Q324 873 324 633V0H232V1120H324V910Q373 1012 453 1066Q571 1147 714 1147Q880 1147 979 1034Q1078 922 1078 676Z" />
<glyph unicode="o" glyph-name="o" horiz-adv-x="1253" d="M799 1066T628 1066T358 929Q258 793 258 561Q258 323 357 187Q456 50 628 50Q799 50 898 187Q998 325 998 561Q998 790 898 928Q799 1066 628 1066ZM627 1147Q841 1147 965 987Q1090 826 1090 560Q1090
285 965 126Q841 -34 627 -34Q411 -34 286 125Q162 284 162 560Q162 829 287 988T627 1147Z" />
<glyph unicode="p" glyph-name="p" horiz-adv-x="1300" d="M324 254V-426H234V1120H324V864Q387 1010 461 1064Q574 1147 674 1147Q873 1147 1005 985T1137 559T1005 133T674 -29Q574 -29 461 54Q387 108 324 254ZM1040 286T1040 559T924 949Q809 1066 681 1066Q556
1066 440 949Q325 832 325 559T440 169Q556 52 681 52Q809 52 924 169Q1040 286 1040 559Z" />
<glyph unicode="q" glyph-name="q" horiz-adv-x="1300" d="M331 832T331 559T447 169Q562 52 690 52Q815 52 931 169Q1046 286 1046 559T931 949Q815 1066 690 1066Q562 1066 447 949Q331 832 331 559ZM1047 254Q984 108 910 54Q797 -29 697 -29Q498 -29 366 133T234
559T366 985T697 1147Q797 1147 910 1064Q984 1010 1047 864V1120H1137V-426H1047V254Z" />
<glyph unicode="r" glyph-name="r" horiz-adv-x="842" d="M840 1041Q818 1052 780 1060Q746 1066 694 1066Q524 1066 412 940Q324 838 324 590V0H234V1120H324V910Q369 1000 450 1062Q562 1147 714 1147Q753 1147 782 1144Q812 1144 840 1137V1041Z" />
<glyph unicode="s" glyph-name="s" horiz-adv-x="1067" d="M866 1087V986Q769 1040 745 1046Q675 1063 571 1066Q413 1066 323 1003Q254 951 254 825Q254 740 319 692Q388 640 516 612L579 598Q738 563 820 499Q915 426 920 309Q920 150 826 60Q726 -29 504 -29Q380
-29 316 -12Q239 10 154 41V156Q276 86 312 76Q411 50 508 50Q670 50 747 117Q825 185 825 295Q825 387 773 429Q698 489 534 527L470 542Q329 575 255 635Q162 710 162 817Q162 993 274 1070T549 1147Q688 1147 741 1132Q805 1114 866 1087Z" />
<glyph unicode="t" glyph-name="t" horiz-adv-x="803" d="M329 1438V1120H708V1042H329V369Q329 241 362 190Q430 78 560 78H708V0H565Q428 0 332 80T236 369V1042H102V1120H236V1438H329Z" />
<glyph unicode="u" glyph-name="u" horiz-adv-x="1298" d="M232 444V1120H324V450Q324 232 394 143T600 54Q759 54 872 150Q986 247 986 487V1120H1078V0H986V210Q937 108 857 54Q739 -27 596 -27Q430 -27 331 86Q232 198 232 444Z" />
<glyph unicode="v" glyph-name="v" horiz-adv-x="1212" d="M130 1120H226L606 101L985 1120H1082L665 0H547L130 1120Z" />
<glyph unicode="w" glyph-name="w" horiz-adv-x="1675" d="M130 1120H225L488 122L749 1120H866L1129 117L1391 1120H1486L1193 0H1065L807 982L550 0H424L130 1120Z" />
<glyph unicode="x" glyph-name="x" horiz-adv-x="1212" d="M1068 1120L663 582L1098 0H988L608 510L224 0H114L552 586L154 1120H263L608 655L958 1120H1068Z" />
<glyph unicode="y" glyph-name="y" horiz-adv-x="1212" d="M610 -104Q550 -253 481 -310Q388 -387 299 -387H162V-309H279Q352 -309 407 -262Q478 -201 524 -83L557 0L110 1120H208L606 122L1005 1120H1102L610 -104Z" />
<glyph unicode="z" glyph-name="z" horiz-adv-x="1075" d="M113 1120H987V1014L177 78H987V0H88V102L897 1041H113V1120Z" />
<glyph unicode="{" glyph-name="braceleft" horiz-adv-x="1303" d="M883 -248V-334H842Q697 -334 641 -260Q584 -186 584 35V288Q584 459 515 532Q481 568 421 568H347V656H421Q463 656 515 692Q584 739 584 934V1188Q584 1409 641 1482Q697 1556 842 1556H883V1471H838Q743
1471 714 1424Q686 1377 686 1225V936Q686 779 655 708Q625 637 551 612Q625 585 656 514Q686 443 686 287V-3Q686 -154 714 -201Q743 -248 838 -248H883Z" />
<glyph unicode="|" glyph-name="bar" horiz-adv-x="690" d="M396 1565V-483H300V1565H396Z" />
<glyph unicode="}" glyph-name="braceright" horiz-adv-x="1303" d="M347 -248H393Q487 -248 516 -201T545 -3V287Q545 443 575 514T680 612Q606 637 576 708Q545 779 545 936V1225Q545 1377 516 1424T393 1471H347V1556H389Q534 1556 590 1482Q647 1409 647 1188V934Q647
739 716 692Q768 656 810 656H883V568H810Q750 568 716 532Q647 459 647 288V35Q647 -186 590 -260Q534 -334 389 -334H347V-248Z" />
<glyph unicode="~" glyph-name="asciitilde" horiz-adv-x="1716" d="M1499 782V685Q1394 606 1304 572Q1215 538 1118 538Q1024 538 862 597Q851 601 846 603Q839 606 824 611Q669 673 575 673Q487 673 401 634Q315 596 217 513V610Q322 689 412 724Q501 758 598
758Q705 758 855 698Q865 694 870 692Q878 689 892 684Q1047 622 1141 622Q1227 622 1312 660Q1396 698 1499 782Z" />
</font>
</defs>
</svg>
